<?xml version="1.0" encoding="utf-8"?>
<!-- Generator: Adobe Illustrator 22.1.0, SVG Export Plug-In . SVG Version: 6.00 Build 0)  -->
<svg version="1.1" id="Capa_1" xmlns="http://www.w3.org/2000/svg" xmlns:xlink="http://www.w3.org/1999/xlink" x="0px" y="0px"
	 viewBox="0 0 30 30" style="enable-background:new 0 0 30 30;" xml:space="preserve">
<style type="text/css">
	.st0{fill:none;stroke:#CCCCCC;stroke-width:0.75;stroke-miterlimit:10;}
</style>
<g>
	<g>
		<path class="st0" d="M3,4.9C1.7,4.9,0.5,6,0.5,7.4c0,1.4,1.1,2.5,2.5,2.5s2.5-1.1,2.5-2.5C5.6,6,4.4,4.9,3,4.9z"/>
	</g>
	<g>
		<path class="st0" d="M3,12.5c-1.4,0-2.5,1.1-2.5,2.5c0,1.4,1.1,2.5,2.5,2.5s2.5-1.1,2.5-2.5C5.6,13.6,4.4,12.5,3,12.5z"/>
	</g>
	<g>
		<path class="st0" d="M3,20.1c-1.4,0-2.5,1.1-2.5,2.5c0,1.4,1.1,2.5,2.5,2.5s2.5-1.1,2.5-2.5C5.6,21.2,4.4,20.1,3,20.1z"/>
	</g>
	<g>
		<path class="st0" d="M27.6,5.5H9.7c-1,0-1.9,0.8-1.9,1.9c0,1,0.8,1.9,1.9,1.9h17.9c1,0,1.9-0.8,1.9-1.9
			C29.5,6.4,28.6,5.5,27.6,5.5z"/>
	</g>
	<g>
		<path class="st0" d="M27.6,13.1H9.7c-1,0-1.9,0.8-1.9,1.9c0,1,0.8,1.9,1.9,1.9h17.9c1,0,1.9-0.8,1.9-1.9
			C29.5,14,28.6,13.1,27.6,13.1z"/>
	</g>
	<g>
		<path class="st0" d="M27.6,20.7H9.7c-1,0-1.9,0.8-1.9,1.9c0,1,0.8,1.9,1.9,1.9h17.9c1,0,1.9-0.8,1.9-1.9
			C29.5,21.5,28.6,20.7,27.6,20.7z"/>
	</g>
</g>
</svg>
