<?xml version="1.0" encoding="utf-8"?>
<!-- Generator: Adobe Illustrator 22.1.0, SVG Export Plug-In . SVG Version: 6.00 Build 0)  -->
<svg version="1.1" id="Capa_1" xmlns="http://www.w3.org/2000/svg" xmlns:xlink="http://www.w3.org/1999/xlink" x="0px" y="0px"
	 viewBox="0 0 30 30" style="enable-background:new 0 0 30 30;" xml:space="preserve">
<style type="text/css">
	.st0{fill:none;stroke:#3686FF;stroke-width:0.75;stroke-miterlimit:10;}
</style>
<g>
	<g>
		<path class="st0" d="M4.3,1.2C2.5,1.2,1,2.7,1,4.5s1.5,3.3,3.3,3.3s3.3-1.5,3.3-3.3S6.1,1.2,4.3,1.2z"/>
		<path class="st0" d="M15,1.2c-1.8,0-3.3,1.5-3.3,3.3s1.5,3.3,3.3,3.3c1.8,0,3.3-1.5,3.3-3.3S16.8,1.2,15,1.2z"/>
		<path class="st0" d="M25.8,7.8c1.8,0,3.3-1.5,3.3-3.3s-1.5-3.3-3.3-3.3s-3.3,1.5-3.3,3.3S24,7.8,25.8,7.8z"/>
		<path class="st0" d="M4.2,18.3c1.8,0,3.3-1.5,3.3-3.3c0-1.8-1.5-3.3-3.3-3.3S0.9,13.2,0.9,15C0.9,16.8,2.4,18.3,4.2,18.3z"/>
		<path class="st0" d="M14.9,18.3c1.8,0,3.3-1.5,3.3-3.3c0-1.8-1.5-3.3-3.3-3.3c-1.8,0-3.3,1.5-3.3,3.3
			C11.6,16.8,13.1,18.3,14.9,18.3z"/>
		<path class="st0" d="M25.7,18.3c1.8,0,3.3-1.5,3.3-3.3c0-1.8-1.5-3.3-3.3-3.3c-1.8,0-3.3,1.5-3.3,3.3
			C22.4,16.8,23.9,18.3,25.7,18.3z"/>
		<path class="st0" d="M4.3,22.2c-1.8,0-3.3,1.5-3.3,3.3c0,1.8,1.5,3.3,3.3,3.3s3.3-1.5,3.3-3.3C7.6,23.7,6.1,22.2,4.3,22.2z"/>
		<path class="st0" d="M14.9,22.2c-1.8,0-3.3,1.5-3.3,3.3c0,1.8,1.5,3.3,3.3,3.3c1.8,0,3.3-1.5,3.3-3.3
			C18.2,23.7,16.8,22.2,14.9,22.2z"/>
		<path class="st0" d="M25.8,22.2c-1.8,0-3.3,1.5-3.3,3.3c0,1.8,1.5,3.3,3.3,3.3c1.8,0,3.3-1.5,3.3-3.3
			C29.1,23.7,27.6,22.2,25.8,22.2z"/>
	</g>
</g>
</svg>
