<?xml version="1.0" encoding="utf-8"?>
<!-- Generator: Adobe Illustrator 16.0.0, SVG Export Plug-In . SVG Version: 6.00 Build 0)  -->
<!DOCTYPE svg PUBLIC "-//W3C//DTD SVG 1.1//EN" "http://www.w3.org/Graphics/SVG/1.1/DTD/svg11.dtd">
<svg version="1.1" id="Capa_1" xmlns="http://www.w3.org/2000/svg" xmlns:xlink="http://www.w3.org/1999/xlink" x="0px" y="0px"
	 width="36px" height="36px" viewBox="882 482 36 36" enable-background="new 882 482 36 36" xml:space="preserve">
<g>
	<g>
		<path fill="#FFFFFF" d="M913.757,484.84h-1.685v-2.807h-2.809v2.807h-18.528v-2.807h-2.808v2.807h-1.684
			c-2.323,0-4.211,1.889-4.211,4.211v24.706c0,2.321,1.889,4.21,4.211,4.21h27.513c2.321,0,4.21-1.889,4.21-4.21v-24.706
			C917.967,486.729,916.078,484.84,913.757,484.84z M915.159,513.757c0,0.772-0.63,1.402-1.402,1.402h-27.513
			c-0.774,0-1.404-0.63-1.404-1.402v-18.529h30.319V513.757z M915.159,492.42H884.84v-3.369c0-0.774,0.63-1.404,1.404-1.404h1.684
			v2.808h2.808v-2.808h18.528v2.808h2.809v-2.808h1.685c0.772,0,1.402,0.629,1.402,1.404V492.42z"/>
	</g>
</g>
<g>
	<g>
		<rect x="887.367" y="498.175" fill="#FFFFFF" width="2.807" height="2.807"/>
	</g>
</g>
<g>
	<g>
		<rect x="892.981" y="498.175" fill="#FFFFFF" width="2.807" height="2.807"/>
	</g>
</g>
<g>
	<g>
		<rect x="898.596" y="498.175" fill="#FFFFFF" width="2.808" height="2.807"/>
	</g>
</g>
<g>
	<g>
		<rect x="904.211" y="498.175" fill="#FFFFFF" width="2.808" height="2.807"/>
	</g>
</g>
<g>
	<g>
		<rect x="909.825" y="498.175" fill="#FFFFFF" width="2.808" height="2.807"/>
	</g>
</g>
<g>
	<g>
		<rect x="887.367" y="503.79" fill="#FFFFFF" width="2.807" height="2.807"/>
	</g>
</g>
<g>
	<g>
		<rect x="892.981" y="503.79" fill="#FFFFFF" width="2.807" height="2.807"/>
	</g>
</g>
<g>
	<g>
		<rect x="898.596" y="503.79" fill="#FFFFFF" width="2.808" height="2.807"/>
	</g>
</g>
<g>
	<g>
		<rect x="904.211" y="503.79" fill="#FFFFFF" width="2.808" height="2.807"/>
	</g>
</g>
<g>
	<g>
		<rect x="887.367" y="509.405" fill="#FFFFFF" width="2.807" height="2.807"/>
	</g>
</g>
<g>
	<g>
		<rect x="892.981" y="509.405" fill="#FFFFFF" width="2.807" height="2.807"/>
	</g>
</g>
<g>
	<g>
		<rect x="898.596" y="509.405" fill="#FFFFFF" width="2.808" height="2.807"/>
	</g>
</g>
<g>
	<g>
		<rect x="904.211" y="509.405" fill="#FFFFFF" width="2.808" height="2.807"/>
	</g>
</g>
<g>
	<g>
		<rect x="909.825" y="503.79" fill="#FFFFFF" width="2.808" height="2.807"/>
	</g>
</g>
</svg>
