<?xml version="1.0" encoding="utf-8"?>
<!-- Generator: Adobe Illustrator 16.0.0, SVG Export Plug-In . SVG Version: 6.00 Build 0)  -->
<!DOCTYPE svg PUBLIC "-//W3C//DTD SVG 1.1//EN" "http://www.w3.org/Graphics/SVG/1.1/DTD/svg11.dtd">
<svg version="1.1" id="Capa_1" xmlns="http://www.w3.org/2000/svg" xmlns:xlink="http://www.w3.org/1999/xlink" x="0px" y="0px"
	 width="36px" height="36px" viewBox="-2.182 -2.183 36 36" enable-background="new -2.182 -2.183 36 36" xml:space="preserve">
<g>
	<g>
		<path fill="#FFFFFF" d="M25.897,15.971c-4.278,0-7.745,3.466-7.745,7.745c0,4.277,3.467,7.746,7.745,7.746
			c4.277,0,7.744-3.469,7.744-7.746C33.641,19.438,30.174,15.971,25.897,15.971z M29.598,24.864h-2.555v2.555h-2.298v-2.555h-2.555
			v-2.298h2.555v-2.554h2.298v2.554h2.555V24.864z"/>
		<path fill="#FFFFFF" d="M25.897,14.821c1.924,0,3.699,0.621,5.156,1.664c0.92-1.861,1.487-3.879,1.487-6.033
			c0-5.676-4.036-10.276-9.019-10.276c-3.69,0-6.859,2.53-8.254,6.148c-1.395-3.618-4.563-6.148-8.254-6.148
			c-4.981-0.001-9.019,4.6-9.019,10.275c0,11.898,17.418,19.643,17.418,19.643s1.221-0.555,3.003-1.584
			c-0.889-1.385-1.412-3.028-1.412-4.793C17.001,18.811,20.992,14.821,25.897,14.821z"/>
	</g>
</g>
</svg>
