<?xml version="1.0" encoding="utf-8"?>
<!-- Generator: Adobe Illustrator 16.0.0, SVG Export Plug-In . SVG Version: 6.00 Build 0)  -->
<!DOCTYPE svg PUBLIC "-//W3C//DTD SVG 1.1//EN" "http://www.w3.org/Graphics/SVG/1.1/DTD/svg11.dtd">
<svg version="1.1" id="Layer_1" xmlns="http://www.w3.org/2000/svg" xmlns:xlink="http://www.w3.org/1999/xlink" x="0px" y="0px"
	 width="36px" height="36px" viewBox="882 482 36 36" enable-background="new 882 482 36 36" xml:space="preserve">
<g>
	<g>
		<g>
			<path fill="#FFFFFF" d="M900.076,506.569c1.264,0,2.291-1.029,2.291-2.292s-1.027-2.292-2.291-2.292s-2.292,1.029-2.292,2.292
				S898.813,506.569,900.076,506.569z M900.076,503.037c0.684,0,1.24,0.557,1.24,1.24s-0.557,1.239-1.24,1.239
				s-1.24-0.556-1.24-1.239S899.393,503.037,900.076,503.037z"/>
			<path fill="#FFFFFF" d="M910.241,489.65c2.094,0,3.798-1.704,3.798-3.797c0-2.094-1.704-3.798-3.798-3.798
				c-2.095,0-3.797,1.704-3.797,3.798C906.444,487.946,908.146,489.65,910.241,489.65z M910.241,483.106
				c1.515,0,2.746,1.231,2.746,2.746c0,1.514-1.231,2.746-2.746,2.746c-1.514,0-2.745-1.231-2.745-2.746
				C907.496,484.338,908.728,483.106,910.241,483.106z"/>
			<path fill="#FFFFFF" d="M915.868,495.495c-0.291,0-0.526,0.235-0.526,0.525v7.194c0,0.188-0.152,0.339-0.339,0.339h-1.283v-9.28
				c0-0.291-0.235-0.526-0.525-0.526c-0.291,0-0.526,0.235-0.526,0.526v22.281c0,0.187-0.152,0.339-0.339,0.339h-1.222
				c-0.188,0-0.341-0.152-0.341-0.339v-8.364c0-0.29-0.235-0.526-0.525-0.526s-0.526,0.236-0.526,0.526v8.364
				c0,0.187-0.151,0.339-0.339,0.339h-1.222c-0.187,0-0.339-0.152-0.339-0.339v-22.281c0-0.291-0.235-0.526-0.526-0.526
				c-0.29,0-0.525,0.235-0.525,0.526v9.28h-1.283c-0.187,0-0.339-0.151-0.339-0.339v-8.943c0-1.727,1.404-3.131,3.132-3.131h3.937
				c1.728,0,3.132,1.404,3.132,3.131c0,0.291,0.235,0.526,0.526,0.526c0.29,0,0.525-0.235,0.525-0.526
				c0-2.306-1.876-4.183-4.184-4.183h-3.938c-2.306,0-4.184,1.876-4.184,4.183v8.944c0.001,0.766,0.624,1.39,1.392,1.39h1.283
				v11.949c0,0.766,0.623,1.391,1.391,1.391h1.222c0.327,0,0.627-0.114,0.865-0.305c0.237,0.19,0.538,0.305,0.866,0.305h1.222
				c0.766,0,1.391-0.623,1.391-1.391v-11.949h1.283c0.766,0,1.391-0.624,1.391-1.391v-7.194
				C916.394,495.73,916.158,495.495,915.868,495.495z"/>
			<path fill="#FFFFFF" d="M889.078,492.864c2.094,0,3.797-1.704,3.797-3.798c0-2.094-1.703-3.797-3.797-3.797
				s-3.797,1.704-3.797,3.797C885.281,491.16,886.984,492.864,889.078,492.864z M889.078,486.32c1.514,0,2.746,1.231,2.746,2.746
				c0,1.515-1.231,2.746-2.746,2.746s-2.746-1.231-2.746-2.746C886.333,487.552,887.564,486.32,889.078,486.32z"/>
			<path fill="#FFFFFF" d="M890.808,493.357h-3.458c-2.062,0-3.737,1.677-3.737,3.738v7.853c0,0.708,0.576,1.285,1.286,1.285h0.016
				l-0.364,3.313c-0.016,0.148,0.031,0.297,0.131,0.408s0.242,0.175,0.392,0.175h0.888v6.532c0,0.708,0.577,1.285,1.286,1.285h1.073
				c0.285,0,0.547-0.094,0.76-0.25c0.213,0.156,0.476,0.25,0.76,0.25h1.073c0.708,0,1.286-0.577,1.286-1.285v-2.903
				c0-0.29-0.235-0.525-0.526-0.525c-0.29,0-0.525,0.235-0.525,0.525v2.903c0,0.129-0.105,0.233-0.234,0.233h-1.073
				c-0.129,0-0.234-0.104-0.234-0.233v-5.616c0-0.29-0.235-0.525-0.526-0.525s-0.526,0.235-0.526,0.525v5.616
				c0,0.129-0.105,0.233-0.234,0.233h-1.073c-0.129,0-0.234-0.104-0.234-0.233v-6.532h4.133v1.945c0,0.29,0.235,0.525,0.526,0.525
				s0.526-0.235,0.526-0.525v-1.945h0.888c0.149,0,0.292-0.063,0.391-0.175s0.147-0.26,0.131-0.408l-0.364-3.313h0.016
				c0.709,0,1.286-0.577,1.286-1.285v-7.853C894.544,495.034,892.868,493.357,890.808,493.357z M893.492,504.947L893.492,504.947
				c0,0.129-0.104,0.233-0.234,0.233h-0.131l-0.962-8.759c-0.032-0.289-0.292-0.496-0.58-0.465c-0.289,0.032-0.497,0.291-0.465,0.58
				l1.377,12.54h-0.494h-0.333h-5.185h-0.432h-0.395l1.378-12.54c0.031-0.289-0.177-0.548-0.466-0.58
				c-0.289-0.03-0.548,0.177-0.58,0.465l-0.962,8.759h-0.131c-0.129,0-0.234-0.104-0.234-0.233v-7.853
				c0-1.481,1.205-2.686,2.686-2.686h3.458c1.48,0,2.685,1.205,2.685,2.686V504.947z"/>
			<path fill="#FFFFFF" d="M904.062,504.82c-0.377,0.012-0.727,0.169-0.983,0.443l-1.961,2.088h-2.03l-1.96-2.088
				c-0.532-0.565-1.425-0.595-1.992-0.063c-0.566,0.532-0.594,1.426-0.063,1.991l2.273,2.421v6.958c0,0.758,0.617,1.374,1.375,1.374
				h2.766c0.757,0,1.374-0.616,1.374-1.374v-2.886c0-0.29-0.235-0.525-0.525-0.525c-0.291,0-0.526,0.235-0.526,0.525v2.886
				c0,0.178-0.145,0.322-0.322,0.322h-0.882v-4.385c0-0.29-0.236-0.525-0.526-0.525c-0.29,0-0.525,0.235-0.525,0.525v4.385h-0.833
				c-0.178,0-0.322-0.145-0.322-0.322v-7.165c0-0.135-0.051-0.262-0.143-0.359l-2.416-2.572c-0.135-0.145-0.128-0.372,0.016-0.506
				c0.144-0.136,0.371-0.129,0.506,0.015l2.116,2.255c0.1,0.104,0.238,0.165,0.383,0.165h2.485c0.146,0,0.284-0.061,0.383-0.165
				l2.117-2.255c0.135-0.144,0.361-0.15,0.506-0.017c0.144,0.136,0.149,0.363,0.015,0.506l-2.416,2.574
				c-0.091,0.096-0.142,0.225-0.142,0.359v2.527c0,0.29,0.235,0.525,0.526,0.525c0.29,0,0.525-0.235,0.525-0.525v-2.32l2.273-2.421
				c0.532-0.565,0.503-1.459-0.063-1.991C904.796,504.943,904.438,504.81,904.062,504.82z"/>
		</g>
	</g>
</g>
</svg>
