<?xml version="1.0" encoding="utf-8"?>
<!-- Generator: Adobe Illustrator 16.0.0, SVG Export Plug-In . SVG Version: 6.00 Build 0)  -->
<!DOCTYPE svg PUBLIC "-//W3C//DTD SVG 1.1//EN" "http://www.w3.org/Graphics/SVG/1.1/DTD/svg11.dtd">
<svg version="1.1" id="Layer_1" xmlns="http://www.w3.org/2000/svg" xmlns:xlink="http://www.w3.org/1999/xlink" x="0px" y="0px"
	 width="36px" height="36px" viewBox="238 238 36 36" enable-background="new 238 238 36 36" xml:space="preserve">
<path fill="#FFFFFF" d="M268.688,243.312c-3.39-3.389-7.895-5.256-12.688-5.256c-4.793,0-9.299,1.867-12.688,5.256
	s-5.256,7.895-5.256,12.688c0,4.794,1.867,9.299,5.256,12.688s7.895,5.256,12.688,5.256c4.794,0,9.299-1.866,12.688-5.256
	s5.256-7.895,5.256-12.688C273.944,251.207,272.078,246.701,268.688,243.312z M247.052,269.064c0.75-4.32,4.495-7.509,8.948-7.509
	s8.197,3.188,8.948,7.509c-2.548,1.75-5.63,2.777-8.948,2.777S249.6,270.814,247.052,269.064z M250.294,253.748
	c0-3.146,2.559-5.706,5.706-5.706s5.706,2.56,5.706,5.706c0,3.146-2.56,5.705-5.706,5.705S250.294,256.894,250.294,253.748z
	 M266.77,267.606c-0.566-2.013-1.689-3.837-3.265-5.263c-0.967-0.875-2.067-1.564-3.251-2.052c2.139-1.395,3.555-3.807,3.555-6.544
	c0-4.306-3.504-7.809-7.809-7.809c-4.306,0-7.808,3.503-7.808,7.809c0,2.737,1.416,5.149,3.553,6.544
	c-1.183,0.487-2.283,1.177-3.249,2.052c-1.576,1.426-2.7,3.25-3.266,5.263c-3.117-2.896-5.072-7.026-5.072-11.606
	c0-8.735,7.106-15.841,15.841-15.841c8.734,0,15.842,7.106,15.842,15.841C271.842,260.58,269.887,264.711,266.77,267.606z"/>
</svg>
