<?xml version="1.0" encoding="utf-8"?>
<!-- Generator: Adobe Illustrator 16.0.0, SVG Export Plug-In . SVG Version: 6.00 Build 0)  -->
<!DOCTYPE svg PUBLIC "-//W3C//DTD SVG 1.1//EN" "http://www.w3.org/Graphics/SVG/1.1/DTD/svg11.dtd">
<svg version="1.1" id="Capa_1" xmlns="http://www.w3.org/2000/svg" xmlns:xlink="http://www.w3.org/1999/xlink" x="0px" y="0px"
	 width="36px" height="36px" viewBox="0 0 36 36" enable-background="new 0 0 36 36" xml:space="preserve">
<g>
	<g>
		<g>
			<path fill="#FFFFFF" d="M32.186,6.057H3.816c-2.059,0-3.733,1.675-3.733,3.731v16.423c0,2.057,1.675,3.732,3.733,3.732h28.37
				c2.058,0,3.73-1.676,3.73-3.732V9.79C35.917,7.731,34.242,6.057,32.186,6.057z M34.424,26.214c0,1.233-1.005,2.239-2.238,2.239
				H3.816c-1.235,0-2.238-1.006-2.238-2.239V9.79c0-1.235,1.003-2.24,2.238-2.24h28.37c1.233,0,2.238,1.005,2.238,2.24V26.214
				L34.424,26.214z"/>
		</g>
	</g>
	<g>
		<g>
			<path fill="#FFFFFF" d="M35.17,10.535H0.831c-0.413,0-0.747,0.334-0.747,0.747v4.479c0,0.412,0.334,0.747,0.747,0.747H35.17
				c0.414,0,0.747-0.335,0.747-0.747v-4.479C35.917,10.869,35.582,10.535,35.17,10.535z M34.424,15.016H1.577v-2.986h32.845v2.986
				H34.424z"/>
		</g>
	</g>
	<g>
		<g>
			<path fill="#FFFFFF" d="M14.269,20.987H5.31c-0.412,0-0.746,0.333-0.746,0.745s0.334,0.746,0.746,0.746h8.959
				c0.411,0,0.746-0.334,0.746-0.746C15.014,21.32,14.68,20.987,14.269,20.987z"/>
		</g>
	</g>
	<g>
		<g>
			<path fill="#FFFFFF" d="M14.269,23.973H5.31c-0.412,0-0.746,0.336-0.746,0.747c0,0.413,0.334,0.746,0.746,0.746h8.959
				c0.411,0,0.746-0.333,0.746-0.746C15.014,24.309,14.68,23.973,14.269,23.973z"/>
		</g>
	</g>
	<g>
		<g>
			<path fill="#FFFFFF" d="M29.198,19.493h-1.493c-1.234,0-2.239,1.006-2.239,2.239v1.49c0,1.236,1.005,2.242,2.239,2.242h1.493
				c1.233,0,2.239-1.006,2.239-2.242v-1.49C31.438,20.499,30.434,19.493,29.198,19.493z M29.945,23.227
				c0,0.412-0.336,0.746-0.747,0.746h-1.493c-0.412,0-0.746-0.334-0.746-0.746v-1.49c0-0.413,0.334-0.746,0.746-0.746h1.493
				c0.411,0,0.747,0.333,0.747,0.746V23.227z"/>
		</g>
	</g>
</g>
</svg>
