<?xml version="1.0" encoding="utf-8"?>
<!-- Generator: Adobe Illustrator 16.0.0, SVG Export Plug-In . SVG Version: 6.00 Build 0)  -->
<!DOCTYPE svg PUBLIC "-//W3C//DTD SVG 1.1//EN" "http://www.w3.org/Graphics/SVG/1.1/DTD/svg11.dtd">
<svg version="1.1" id="Capa_1" xmlns="http://www.w3.org/2000/svg" xmlns:xlink="http://www.w3.org/1999/xlink" x="0px" y="0px"
	 width="36px" height="36px" viewBox="882 482 36 36" enable-background="new 882 482 36 36" xml:space="preserve">
<g>
	<g>
		<path fill="#FFFFFF" d="M885.995,485.358c-0.383,0-0.695,0.311-0.695,0.695c0,0.384,0.312,0.695,0.695,0.695h0.007
			c0.384,0,0.692-0.311,0.692-0.695C886.694,485.669,886.379,485.358,885.995,485.358z"/>
	</g>
</g>
<g>
	<g>
		<path fill="#FFFFFF" d="M889.328,485.358c-0.384,0-0.695,0.311-0.695,0.695c0,0.384,0.311,0.695,0.695,0.695h0.007
			c0.383,0,0.691-0.311,0.691-0.695C890.026,485.669,889.711,485.358,889.328,485.358z"/>
	</g>
</g>
<g>
	<g>
		<path fill="#FFFFFF" d="M892.661,485.358c-0.384,0-0.695,0.311-0.695,0.695c0,0.384,0.312,0.695,0.695,0.695h0.007
			c0.384,0,0.692-0.311,0.692-0.695C893.359,485.669,893.044,485.358,892.661,485.358z"/>
	</g>
</g>
<g>
	<g>
		<path fill="#FFFFFF" d="M909.708,485.358h-8.435c-0.384,0-0.694,0.311-0.694,0.695c0,0.384,0.311,0.695,0.694,0.695h8.435
			c0.384,0,0.695-0.311,0.695-0.695C910.403,485.669,910.092,485.358,909.708,485.358z"/>
	</g>
</g>
<g>
	<g>
		<path fill="#FFFFFF" d="M898.465,509.795c-0.13-0.129-0.309-0.203-0.492-0.203c-0.183,0-0.362,0.074-0.491,0.203
			c-0.129,0.13-0.204,0.308-0.204,0.491c0,0.183,0.075,0.362,0.204,0.491c0.129,0.13,0.309,0.204,0.491,0.204
			c0.183,0,0.362-0.074,0.492-0.204c0.129-0.129,0.204-0.309,0.204-0.491C898.668,510.103,898.594,509.925,898.465,509.795z"/>
	</g>
</g>
<g>
	<g>
		<path fill="#FFFFFF" d="M914.041,491.122v-5.439c0-1.917-1.559-3.475-3.475-3.475h-24.886c-1.916,0-3.475,1.559-3.475,3.476
			v21.959c0,1.841,1.497,3.339,3.338,3.339h2.608v0.112c0,0.238-0.169,0.444-0.402,0.49l-2.62,0.522
			c-1.456,0.291-2.542,1.477-2.703,2.951l-0.214,1.965c-0.021,0.196,0.042,0.392,0.173,0.538c0.132,0.148,0.32,0.232,0.517,0.232
			h15.069c0.197,0,0.386-0.085,0.518-0.232c0.131-0.146,0.195-0.342,0.173-0.538l-0.215-1.965c-0.161-1.475-1.247-2.661-2.702-2.951
			l-2.62-0.522c-0.234-0.046-0.403-0.252-0.403-0.49v-0.652c0-0.004,0-0.007,0-0.011l1.178-0.673
			c0.013-0.008,0.026-0.016,0.038-0.023c0.632-0.418,1.046-1.16,1.11-1.988c0.001-0.017,0.002-0.034,0.002-0.053v-2.85
			c0.416-0.271,0.718-0.763,0.718-1.623l0.001-1.562c0-0.026-0.001-0.052-0.003-0.077c-0.071-1.375-1.191-2.444-2.576-2.444h-5.906
			c-0.26,0-0.5-0.137-0.656-0.252c-0.293-0.216-0.676-0.248-1-0.084c-0.322,0.163-0.523,0.489-0.523,0.851v2.262
			c0,0.768,0.271,1.474,0.72,2.028v3.751c0,0.019,0,0.036,0.001,0.053c0.057,0.739,0.398,1.411,0.925,1.846h-1.209
			c-1.074,0-1.948-0.874-1.948-1.949v-14.588h7.762c0.383,0,0.695-0.311,0.695-0.695c0-0.384-0.312-0.694-0.695-0.694h-7.762v-1.947
			h29.056v1.384h-11.282c-2.287,0-4.147,1.86-4.147,4.147v5.818c0,2.285,1.86,4.146,4.147,4.146h0.869v2.032
			c0,0.28,0.169,0.534,0.429,0.643c0.086,0.034,0.177,0.053,0.266,0.053c0.182,0,0.359-0.071,0.492-0.204l2.523-2.523h6.703v2.429
			c0,1.075-0.874,1.949-1.948,1.949h-9.902c-0.383,0-0.694,0.311-0.694,0.694s0.311,0.695,0.694,0.695h9.902
			c1.841,0,3.338-1.498,3.338-3.339v-2.448c2.104-0.199,3.754-1.974,3.754-4.127v-5.818
			C917.795,493.096,916.145,491.321,914.041,491.122z M893.174,513.011l2.301,0.459c0.858,0.171,1.498,0.869,1.593,1.738l0.13,1.194
			H883.68l0.13-1.193c0.094-0.87,0.734-1.568,1.592-1.739l2.301-0.459c0.755,0.672,1.717,1.041,2.736,1.041
			S892.42,513.683,893.174,513.011z M889.097,512.31c0.253-0.302,0.412-0.681,0.439-1.091c0.288,0.141,0.594,0.213,0.902,0.213
			c0.307,0,0.614-0.072,0.901-0.213c0.028,0.41,0.187,0.789,0.44,1.091c-0.405,0.229-0.863,0.352-1.341,0.352
			S889.502,512.539,889.097,512.31z M893.662,507.665c-0.035,0.378-0.214,0.72-0.472,0.898l-2.335,1.335
			c-0.013,0.007-0.025,0.016-0.038,0.023c-0.24,0.159-0.516,0.159-0.756,0c-0.012-0.008-0.024-0.016-0.037-0.022l-2.329-1.336
			c-0.262-0.182-0.444-0.522-0.479-0.898v-2.722c0.349,0.129,0.727,0.199,1.12,0.199h5.326V507.665z M886.497,501.914v-1.531
			c0.259,0.096,0.525,0.146,0.789,0.146h5.906c0.648,0,1.171,0.509,1.189,1.156c0,0.007,0,0.016,0.001,0.023l-0.001,1.512v0.001
			c0,0.352-0.072,0.44-0.08,0.449c-0.028,0.03-0.149,0.083-0.427,0.083h-5.537C887.321,503.753,886.497,502.928,886.497,501.914z
			 M883.596,488.328v-2.645c0-1.15,0.936-2.085,2.085-2.085h24.886c1.15,0,2.085,0.935,2.085,2.085v2.646L883.596,488.328
			L883.596,488.328z M916.404,501.067c0,1.52-1.236,2.757-2.757,2.757h-7.988c-0.184,0-0.361,0.073-0.491,0.203l-1.54,1.54v-1.049
			c0-0.384-0.311-0.694-0.695-0.694h-1.563c-1.521,0-2.757-1.237-2.757-2.757v-5.818c0-1.52,1.236-2.757,2.757-2.757h12.278
			c1.521,0,2.757,1.237,2.757,2.757V501.067z"/>
	</g>
</g>
<g>
	<g>
		<path fill="#FFFFFF" d="M901.948,496.046c-1.149,0-2.085,0.936-2.085,2.085c0,1.149,0.936,2.085,2.085,2.085
			c1.15,0,2.085-0.936,2.085-2.085C904.033,496.982,903.099,496.046,901.948,496.046z M901.948,498.827
			c-0.384,0-0.695-0.312-0.695-0.695c0-0.384,0.312-0.695,0.695-0.695c0.383,0,0.694,0.312,0.694,0.695
			C902.643,498.515,902.331,498.827,901.948,498.827z"/>
	</g>
</g>
<g>
	<g>
		<path fill="#FFFFFF" d="M907.508,496.046c-1.149,0-2.085,0.936-2.085,2.085c0,1.149,0.936,2.085,2.085,2.085
			s2.086-0.936,2.086-2.085C909.594,496.982,908.657,496.046,907.508,496.046z M907.508,498.827c-0.383,0-0.694-0.312-0.694-0.695
			c0-0.384,0.312-0.695,0.694-0.695c0.384,0,0.695,0.312,0.695,0.695C908.203,498.515,907.892,498.827,907.508,498.827z"/>
	</g>
</g>
<g>
	<g>
		<path fill="#FFFFFF" d="M913.068,496.046c-1.15,0-2.085,0.936-2.085,2.085c0,1.149,0.935,2.085,2.085,2.085
			c1.149,0,2.086-0.936,2.086-2.085C915.154,496.982,914.218,496.046,913.068,496.046z M913.068,498.827
			c-0.383,0-0.694-0.312-0.694-0.695c0-0.384,0.312-0.695,0.694-0.695s0.695,0.312,0.695,0.695
			C913.764,498.515,913.451,498.827,913.068,498.827z"/>
	</g>
</g>
<g>
	<g>
		<path fill="#FFFFFF" d="M894.455,491.868c-0.129-0.129-0.309-0.204-0.491-0.204c-0.183,0-0.362,0.075-0.492,0.204
			s-0.203,0.308-0.203,0.491s0.074,0.362,0.203,0.492s0.309,0.203,0.492,0.203s0.362-0.074,0.491-0.203
			c0.13-0.129,0.203-0.309,0.203-0.492C894.658,492.177,894.585,491.998,894.455,491.868z"/>
	</g>
</g>
</svg>
