<?xml version="1.0" encoding="utf-8"?>
<!-- Generator: Adobe Illustrator 16.0.0, SVG Export Plug-In . SVG Version: 6.00 Build 0)  -->
<!DOCTYPE svg PUBLIC "-//W3C//DTD SVG 1.1//EN" "http://www.w3.org/Graphics/SVG/1.1/DTD/svg11.dtd">
<svg version="1.1" id="Capa_1" xmlns="http://www.w3.org/2000/svg" xmlns:xlink="http://www.w3.org/1999/xlink" x="0px" y="0px"
	 width="36px" height="36px" viewBox="882 482 36 36" enable-background="new 882 482 36 36" xml:space="preserve">
<g>
	<g>
		<path fill="#FFFFFF" d="M917.11,502.365h-0.556v-16.691c0-1.917-1.561-3.478-3.479-3.478h-26.151
			c-1.917,0-3.478,1.561-3.478,3.478v16.691h-0.556c-0.385,0-0.696,0.312-0.696,0.696v1.183c0,1.879,1.529,3.408,3.408,3.408h0.804
			c-0.553,1.176-0.607,2.538-0.128,3.771l2.312,5.94c0.107,0.276,0.37,0.444,0.648,0.444c0.084,0,0.169-0.016,0.252-0.047
			c0.358-0.14,0.535-0.543,0.396-0.9l-2.311-5.942c-0.406-1.045-0.271-2.221,0.36-3.146l1.146-1.681v1.349
			c0,0.385,0.311,0.696,0.695,0.696c0.384,0,0.695-0.312,0.695-0.696v-11.469c0-0.539,0.438-0.977,0.977-0.977
			s0.977,0.438,0.977,0.977v9.161c0,0.384,0.311,0.695,0.695,0.695s0.695-0.312,0.695-0.695v-3.273c0-0.539,0.438-0.978,0.978-0.978
			c0.538,0,0.977,0.438,0.977,0.978v3.273c0,0.384,0.311,0.695,0.696,0.695c0.384,0,0.695-0.312,0.695-0.695v-3.273
			c0-0.539,0.438-0.978,0.977-0.978s0.977,0.438,0.977,0.978v3.273c0,0.384,0.312,0.695,0.695,0.695
			c0.385,0,0.696-0.312,0.696-0.695v-3.273v-0.01c0-0.538,0.438-0.977,0.977-0.977c0.539,0,0.977,0.438,0.977,0.977v6.211
			c0,2.082-0.414,4.108-1.23,6.023l-1.174,2.756c-0.151,0.354,0.014,0.763,0.367,0.913c0.088,0.038,0.182,0.056,0.272,0.056
			c0.27,0,0.528-0.158,0.64-0.423l1.174-2.757c0.891-2.089,1.342-4.298,1.342-6.568v-0.407h10.547c1.879,0,3.408-1.529,3.408-3.408
			v-1.183C917.807,502.677,917.495,502.365,917.11,502.365z M887.282,506.26h-1.679c-1.112,0-2.017-0.904-2.017-2.016v-0.487h5.404
			L887.282,506.26z M889.082,495.971v1.527h-0.488c-0.69,0-1.252-0.562-1.252-1.252c0-0.69,0.562-1.252,1.252-1.252h0.699
			C889.158,495.292,889.082,495.622,889.082,495.971z M893.606,494.994h2.476c0.69,0,1.251,0.562,1.251,1.252
			c0,0.69-0.562,1.252-1.251,1.252h-2.264v-1.527C893.818,495.622,893.742,495.292,893.606,494.994z M901.484,499.48
			c-0.655,0-1.249,0.268-1.677,0.699c-0.428-0.425-1.018-0.688-1.668-0.688c-0.652,0-1.244,0.265-1.672,0.693
			c-0.429-0.429-1.021-0.693-1.672-0.693c-0.349,0-0.679,0.076-0.978,0.211v-0.813h2.264c1.458,0,2.643-1.186,2.643-2.643
			s-1.185-2.644-2.643-2.644h-7.487c-1.457,0-2.643,1.186-2.643,2.644s1.186,2.643,2.643,2.643h0.488v3.476h-4.244v-16.691
			c0-1.15,0.937-2.087,2.087-2.087h26.151c1.152,0,2.087,0.937,2.087,2.087v13.633h-5.982c-0.385,0-0.695,0.312-0.695,0.696
			s0.311,0.696,0.695,0.696h5.982v1.666h-11.312v-0.517C903.852,500.542,902.79,499.48,901.484,499.48z M916.415,504.244
			c0,1.111-0.904,2.016-2.017,2.016h-10.547v-2.503h12.563V504.244z"/>
	</g>
</g>
<g>
	<g>
		<path fill="#FFFFFF" d="M906.901,499.511c-0.13-0.129-0.309-0.204-0.491-0.204c-0.184,0-0.362,0.075-0.492,0.204
			c-0.13,0.129-0.203,0.309-0.203,0.492c0,0.184,0.073,0.362,0.203,0.492c0.13,0.13,0.309,0.204,0.492,0.204
			c0.183,0,0.362-0.074,0.491-0.204c0.13-0.129,0.204-0.308,0.204-0.492C907.105,499.82,907.031,499.64,906.901,499.511z"/>
	</g>
</g>
<g>
	<g>
		<path fill="#FFFFFF" d="M894.662,490.051c-0.129-0.129-0.309-0.204-0.492-0.204c-0.184,0-0.363,0.074-0.492,0.204
			c-0.13,0.129-0.204,0.309-0.204,0.492c0,0.183,0.074,0.363,0.204,0.492c0.129,0.129,0.309,0.204,0.492,0.204
			c0.183,0,0.361-0.075,0.492-0.204c0.129-0.129,0.204-0.309,0.204-0.492C894.865,490.36,894.791,490.18,894.662,490.051z"/>
	</g>
</g>
<g>
	<g>
		<path fill="#FFFFFF" d="M891.652,489.847h-5.005c-0.384,0-0.695,0.312-0.695,0.695c0,0.384,0.312,0.696,0.695,0.696h5.005
			c0.384,0,0.695-0.312,0.695-0.696C892.347,490.159,892.036,489.847,891.652,489.847z"/>
	</g>
</g>
<g>
	<g>
		<path fill="#FFFFFF" d="M898.029,485.952H886.65c-0.384,0-0.696,0.312-0.696,0.695c0,0.384,0.312,0.696,0.696,0.696h11.378
			c0.384,0,0.695-0.312,0.695-0.696C898.724,486.264,898.413,485.952,898.029,485.952z"/>
	</g>
</g>
<g>
	<g>
		<path fill="#FFFFFF" d="M911.965,490.93v-1.048c0-0.768-0.625-1.392-1.393-1.392h-2.445c-0.254,0-0.49,0.07-0.695,0.188
			c-0.205-0.119-0.441-0.188-0.696-0.188h-2.445c-0.768,0-1.391,0.624-1.391,1.392v1.021c-1.253,0.309-2.186,1.44-2.186,2.786v2.278
			c0,0.384,0.311,0.695,0.695,0.695h11.945c0.385,0,0.695-0.312,0.695-0.695v-2.278C914.051,492.379,913.167,491.272,911.965,490.93
			z M908.127,489.882h2.445v0.938h-2.445V489.882z M904.29,489.882h2.445v0.938h-2.445V489.882z M912.659,495.272L912.659,495.272
			h-10.554v-1.583c0-0.814,0.662-1.478,1.478-1.478h0.011h3.838h3.75c0.814,0,1.478,0.663,1.478,1.478V495.272L912.659,495.272z"/>
	</g>
</g>
</svg>
